<mxfile host="app.diagrams.net" modified="2021-06-07T06:45:29.276Z" agent="5.0 (X11)" etag="I2Dtx0RBzJE7F3FS_ipj" version="14.7.6" type="github">
  <diagram id="Am8PIktLpf--4aQYehBC" name="Page-1">
    <mxGraphModel dx="2716" dy="674" grid="1" gridSize="10" guides="1" tooltips="1" connect="1" arrows="1" fold="1" page="1" pageScale="1" pageWidth="1920" pageHeight="1200" math="0" shadow="0">
      <root>
        <mxCell id="0" />
        <mxCell id="1" parent="0" />
        <mxCell id="1VEz2_jv1e1CEYr6-E1S-1" value="" style="whiteSpace=wrap;html=1;aspect=fixed;" parent="1" vertex="1">
          <mxGeometry x="1200" y="200" width="360" height="360" as="geometry" />
        </mxCell>
        <mxCell id="1VEz2_jv1e1CEYr6-E1S-2" value="" style="rounded=0;whiteSpace=wrap;html=1;" parent="1" vertex="1">
          <mxGeometry x="1210" y="210" width="20" height="340" as="geometry" />
        </mxCell>
        <mxCell id="1VEz2_jv1e1CEYr6-E1S-3" value="" style="rounded=0;whiteSpace=wrap;html=1;" parent="1" vertex="1">
          <mxGeometry x="1250" y="210" width="20" height="340" as="geometry" />
        </mxCell>
        <mxCell id="1VEz2_jv1e1CEYr6-E1S-4" value="" style="rounded=0;whiteSpace=wrap;html=1;" parent="1" vertex="1">
          <mxGeometry x="1530" y="210" width="20" height="340" as="geometry" />
        </mxCell>
        <mxCell id="1VEz2_jv1e1CEYr6-E1S-5" value="" style="endArrow=classic;html=1;" parent="1" edge="1">
          <mxGeometry width="50" height="50" relative="1" as="geometry">
            <mxPoint x="1170" y="220" as="sourcePoint" />
            <mxPoint x="1200" y="220" as="targetPoint" />
            <Array as="points">
              <mxPoint x="1200" y="220" />
            </Array>
          </mxGeometry>
        </mxCell>
        <mxCell id="1VEz2_jv1e1CEYr6-E1S-6" value="" style="endArrow=classic;html=1;" parent="1" edge="1">
          <mxGeometry width="50" height="50" relative="1" as="geometry">
            <mxPoint x="1170" y="260" as="sourcePoint" />
            <mxPoint x="1200" y="260" as="targetPoint" />
            <Array as="points">
              <mxPoint x="1200" y="260" />
            </Array>
          </mxGeometry>
        </mxCell>
        <mxCell id="1VEz2_jv1e1CEYr6-E1S-7" value="" style="endArrow=classic;html=1;" parent="1" edge="1">
          <mxGeometry width="50" height="50" relative="1" as="geometry">
            <mxPoint x="1170" y="300" as="sourcePoint" />
            <mxPoint x="1200" y="300" as="targetPoint" />
            <Array as="points">
              <mxPoint x="1200" y="300" />
            </Array>
          </mxGeometry>
        </mxCell>
        <mxCell id="1VEz2_jv1e1CEYr6-E1S-8" value="" style="endArrow=classic;html=1;" parent="1" edge="1">
          <mxGeometry width="50" height="50" relative="1" as="geometry">
            <mxPoint x="1170" y="340" as="sourcePoint" />
            <mxPoint x="1200" y="340" as="targetPoint" />
            <Array as="points">
              <mxPoint x="1200" y="340" />
            </Array>
          </mxGeometry>
        </mxCell>
        <mxCell id="1VEz2_jv1e1CEYr6-E1S-9" value="" style="endArrow=classic;html=1;" parent="1" edge="1">
          <mxGeometry width="50" height="50" relative="1" as="geometry">
            <mxPoint x="1170" y="379.83" as="sourcePoint" />
            <mxPoint x="1200" y="379.83" as="targetPoint" />
            <Array as="points">
              <mxPoint x="1200" y="379.83" />
            </Array>
          </mxGeometry>
        </mxCell>
        <mxCell id="1VEz2_jv1e1CEYr6-E1S-10" value="" style="endArrow=classic;html=1;" parent="1" edge="1">
          <mxGeometry width="50" height="50" relative="1" as="geometry">
            <mxPoint x="1170" y="419.99999999999994" as="sourcePoint" />
            <mxPoint x="1200" y="419.99999999999994" as="targetPoint" />
            <Array as="points">
              <mxPoint x="1200" y="420" />
            </Array>
          </mxGeometry>
        </mxCell>
        <mxCell id="1VEz2_jv1e1CEYr6-E1S-11" value="" style="endArrow=classic;html=1;" parent="1" edge="1">
          <mxGeometry width="50" height="50" relative="1" as="geometry">
            <mxPoint x="1170" y="460" as="sourcePoint" />
            <mxPoint x="1200" y="460" as="targetPoint" />
            <Array as="points">
              <mxPoint x="1200" y="460" />
            </Array>
          </mxGeometry>
        </mxCell>
        <mxCell id="1VEz2_jv1e1CEYr6-E1S-12" value="" style="endArrow=classic;html=1;" parent="1" edge="1">
          <mxGeometry width="50" height="50" relative="1" as="geometry">
            <mxPoint x="1170" y="500" as="sourcePoint" />
            <mxPoint x="1200" y="500" as="targetPoint" />
            <Array as="points">
              <mxPoint x="1200" y="500" />
            </Array>
          </mxGeometry>
        </mxCell>
        <mxCell id="1VEz2_jv1e1CEYr6-E1S-13" value="" style="endArrow=classic;html=1;" parent="1" edge="1">
          <mxGeometry width="50" height="50" relative="1" as="geometry">
            <mxPoint x="1170" y="540" as="sourcePoint" />
            <mxPoint x="1200" y="540" as="targetPoint" />
            <Array as="points">
              <mxPoint x="1200" y="540" />
            </Array>
          </mxGeometry>
        </mxCell>
        <mxCell id="1VEz2_jv1e1CEYr6-E1S-14" value="" style="endArrow=classic;html=1;" parent="1" edge="1">
          <mxGeometry width="50" height="50" relative="1" as="geometry">
            <mxPoint x="1230" y="220" as="sourcePoint" />
            <mxPoint x="1250" y="220" as="targetPoint" />
            <Array as="points" />
          </mxGeometry>
        </mxCell>
        <mxCell id="1VEz2_jv1e1CEYr6-E1S-16" value="" style="endArrow=classic;html=1;" parent="1" edge="1">
          <mxGeometry width="50" height="50" relative="1" as="geometry">
            <mxPoint x="1230" y="540" as="sourcePoint" />
            <mxPoint x="1250" y="540" as="targetPoint" />
            <Array as="points" />
          </mxGeometry>
        </mxCell>
        <mxCell id="1VEz2_jv1e1CEYr6-E1S-17" value="" style="endArrow=classic;html=1;exitX=1.001;exitY=0.055;exitDx=0;exitDy=0;exitPerimeter=0;" parent="1" source="1VEz2_jv1e1CEYr6-E1S-1" edge="1">
          <mxGeometry width="50" height="50" relative="1" as="geometry">
            <mxPoint x="1570" y="220" as="sourcePoint" />
            <mxPoint x="1600" y="220" as="targetPoint" />
            <Array as="points">
              <mxPoint x="1600" y="220" />
            </Array>
          </mxGeometry>
        </mxCell>
        <mxCell id="1VEz2_jv1e1CEYr6-E1S-18" value="" style="endArrow=classic;html=1;exitX=1.002;exitY=0.945;exitDx=0;exitDy=0;exitPerimeter=0;" parent="1" source="1VEz2_jv1e1CEYr6-E1S-1" edge="1">
          <mxGeometry width="50" height="50" relative="1" as="geometry">
            <mxPoint x="1570" y="540" as="sourcePoint" />
            <mxPoint x="1600" y="540" as="targetPoint" />
            <Array as="points" />
          </mxGeometry>
        </mxCell>
        <mxCell id="1VEz2_jv1e1CEYr6-E1S-21" value="label" style="ellipse;whiteSpace=wrap;html=1;aspect=fixed;" parent="1" vertex="1">
          <mxGeometry x="1600" y="200" width="40" height="40" as="geometry" />
        </mxCell>
        <mxCell id="1VEz2_jv1e1CEYr6-E1S-22" value="&#xa;&#xa;&lt;span style=&quot;color: rgb(0, 0, 0); font-family: helvetica; font-size: 12px; font-style: normal; font-weight: 400; letter-spacing: normal; text-align: center; text-indent: 0px; text-transform: none; word-spacing: 0px; background-color: rgb(248, 249, 250); display: inline; float: none;&quot;&gt;label&lt;/span&gt;&#xa;&#xa;" style="ellipse;whiteSpace=wrap;html=1;aspect=fixed;" parent="1" vertex="1">
          <mxGeometry x="1600" y="240" width="40" height="40" as="geometry" />
        </mxCell>
        <mxCell id="1VEz2_jv1e1CEYr6-E1S-23" value="&#xa;&#xa;&lt;span style=&quot;color: rgb(0, 0, 0); font-family: helvetica; font-size: 12px; font-style: normal; font-weight: 400; letter-spacing: normal; text-align: center; text-indent: 0px; text-transform: none; word-spacing: 0px; background-color: rgb(248, 249, 250); display: inline; float: none;&quot;&gt;label&lt;/span&gt;&#xa;&#xa;" style="ellipse;whiteSpace=wrap;html=1;aspect=fixed;" parent="1" vertex="1">
          <mxGeometry x="1600" y="280" width="40" height="40" as="geometry" />
        </mxCell>
        <mxCell id="1VEz2_jv1e1CEYr6-E1S-24" value="&#xa;&#xa;&lt;span style=&quot;color: rgb(0, 0, 0); font-family: helvetica; font-size: 12px; font-style: normal; font-weight: 400; letter-spacing: normal; text-align: center; text-indent: 0px; text-transform: none; word-spacing: 0px; background-color: rgb(248, 249, 250); display: inline; float: none;&quot;&gt;label&lt;/span&gt;&#xa;&#xa;" style="ellipse;whiteSpace=wrap;html=1;aspect=fixed;" parent="1" vertex="1">
          <mxGeometry x="1600" y="320" width="40" height="40" as="geometry" />
        </mxCell>
        <mxCell id="1VEz2_jv1e1CEYr6-E1S-25" value="&#xa;&#xa;&lt;span style=&quot;color: rgb(0, 0, 0); font-family: helvetica; font-size: 12px; font-style: normal; font-weight: 400; letter-spacing: normal; text-align: center; text-indent: 0px; text-transform: none; word-spacing: 0px; background-color: rgb(248, 249, 250); display: inline; float: none;&quot;&gt;label&lt;/span&gt;&#xa;&#xa;" style="ellipse;whiteSpace=wrap;html=1;aspect=fixed;" parent="1" vertex="1">
          <mxGeometry x="1600" y="360" width="40" height="40" as="geometry" />
        </mxCell>
        <mxCell id="1VEz2_jv1e1CEYr6-E1S-26" value="&#xa;&#xa;&lt;span style=&quot;color: rgb(0, 0, 0); font-family: helvetica; font-size: 12px; font-style: normal; font-weight: 400; letter-spacing: normal; text-align: center; text-indent: 0px; text-transform: none; word-spacing: 0px; background-color: rgb(248, 249, 250); display: inline; float: none;&quot;&gt;label&lt;/span&gt;&#xa;&#xa;" style="ellipse;whiteSpace=wrap;html=1;aspect=fixed;" parent="1" vertex="1">
          <mxGeometry x="1600" y="400" width="40" height="40" as="geometry" />
        </mxCell>
        <mxCell id="1VEz2_jv1e1CEYr6-E1S-27" value="&#xa;&#xa;&lt;span style=&quot;color: rgb(0, 0, 0); font-family: helvetica; font-size: 12px; font-style: normal; font-weight: 400; letter-spacing: normal; text-align: center; text-indent: 0px; text-transform: none; word-spacing: 0px; background-color: rgb(248, 249, 250); display: inline; float: none;&quot;&gt;label&lt;/span&gt;&#xa;&#xa;" style="ellipse;whiteSpace=wrap;html=1;aspect=fixed;" parent="1" vertex="1">
          <mxGeometry x="1600" y="440" width="40" height="40" as="geometry" />
        </mxCell>
        <mxCell id="1VEz2_jv1e1CEYr6-E1S-28" value="&#xa;&#xa;&lt;span style=&quot;color: rgb(0, 0, 0); font-family: helvetica; font-size: 12px; font-style: normal; font-weight: 400; letter-spacing: normal; text-align: center; text-indent: 0px; text-transform: none; word-spacing: 0px; background-color: rgb(248, 249, 250); display: inline; float: none;&quot;&gt;label&lt;/span&gt;&#xa;&#xa;" style="ellipse;whiteSpace=wrap;html=1;aspect=fixed;" parent="1" vertex="1">
          <mxGeometry x="1600" y="480" width="40" height="40" as="geometry" />
        </mxCell>
        <mxCell id="1VEz2_jv1e1CEYr6-E1S-29" value="&#xa;&#xa;&lt;span style=&quot;color: rgb(0, 0, 0); font-family: helvetica; font-size: 12px; font-style: normal; font-weight: 400; letter-spacing: normal; text-align: center; text-indent: 0px; text-transform: none; word-spacing: 0px; background-color: rgb(248, 249, 250); display: inline; float: none;&quot;&gt;label&lt;/span&gt;&#xa;&#xa;" style="ellipse;whiteSpace=wrap;html=1;aspect=fixed;" parent="1" vertex="1">
          <mxGeometry x="1600" y="520" width="40" height="40" as="geometry" />
        </mxCell>
        <mxCell id="1VEz2_jv1e1CEYr6-E1S-30" value="" style="endArrow=classic;html=1;entryX=0;entryY=0.5;entryDx=0;entryDy=0;" parent="1" target="1VEz2_jv1e1CEYr6-E1S-25" edge="1">
          <mxGeometry width="50" height="50" relative="1" as="geometry">
            <mxPoint x="1560" y="380" as="sourcePoint" />
            <mxPoint x="1610" y="330" as="targetPoint" />
          </mxGeometry>
        </mxCell>
        <mxCell id="1VEz2_jv1e1CEYr6-E1S-31" value="12 layer + 768 features" style="text;html=1;strokeColor=none;fillColor=none;align=center;verticalAlign=middle;whiteSpace=wrap;rounded=0;" parent="1" vertex="1">
          <mxGeometry x="1200" y="170" width="360" height="20" as="geometry" />
        </mxCell>
        <mxCell id="1VEz2_jv1e1CEYr6-E1S-32" value="encoder layer 1" style="text;html=1;strokeColor=none;fillColor=none;align=center;verticalAlign=middle;whiteSpace=wrap;rounded=0;rotation=90;" parent="1" vertex="1">
          <mxGeometry x="1175" y="370" width="90" height="20" as="geometry" />
        </mxCell>
        <mxCell id="1VEz2_jv1e1CEYr6-E1S-33" value="layer 2" style="text;html=1;strokeColor=none;fillColor=none;align=center;verticalAlign=middle;whiteSpace=wrap;rounded=0;rotation=90;" parent="1" vertex="1">
          <mxGeometry x="1240" y="370" width="40" height="20" as="geometry" />
        </mxCell>
        <mxCell id="1VEz2_jv1e1CEYr6-E1S-34" value="layer 12" style="text;html=1;strokeColor=none;fillColor=none;align=center;verticalAlign=middle;whiteSpace=wrap;rounded=0;rotation=90;" parent="1" vertex="1">
          <mxGeometry x="1505" y="370" width="70" height="20" as="geometry" />
        </mxCell>
        <mxCell id="1VEz2_jv1e1CEYr6-E1S-35" value="CLS&lt;span style=&quot;color: rgba(0 , 0 , 0 , 0) ; font-family: monospace ; font-size: 0px&quot;&gt;%3CmxGraphModel%3E%3Croot%3E%3CmxCell%20id%3D%220%22%2F%3E%3CmxCell%20id%3D%221%22%20parent%3D%220%22%2F%3E%3CmxCell%20id%3D%222%22%20value%3D%22layer%202%22%20style%3D%22text%3Bhtml%3D1%3BstrokeColor%3Dnone%3BfillColor%3Dnone%3Balign%3Dcenter%3BverticalAlign%3Dmiddle%3BwhiteSpace%3Dwrap%3Brounded%3D0%3Brotation%3D90%3B%22%20vertex%3D%221%22%20parent%3D%221%22%3E%3CmxGeometry%20x%3D%22240%22%20y%3D%22270%22%20width%3D%2240%22%20height%3D%2220%22%20as%3D%22geometry%22%2F%3E%3C%2FmxCell%3E%3C%2Froot%3E%3C%2FmxGraphModel%3E&lt;/span&gt;&lt;span style=&quot;color: rgba(0 , 0 , 0 , 0) ; font-family: monospace ; font-size: 0px&quot;&gt;%3CmxGraphModel%3E%3Croot%3E%3CmxCell%20id%3D%220%22%2F%3E%3CmxCell%20id%3D%221%22%20parent%3D%220%22%2F%3E%3CmxCell%20id%3D%222%22%20value%3D%22layer%202%22%20style%3D%22text%3Bhtml%3D1%3BstrokeColor%3Dnone%3BfillColor%3Dnone%3Balign%3Dcenter%3BverticalAlign%3Dmiddle%3BwhiteSpace%3Dwrap%3Brounded%3D0%3Brotation%3D90%3B%22%20vertex%3D%221%22%20parent%3D%221%22%3E%3CmxGeometry%20x%3D%22240%22%20y%3D%22270%22%20width%3D%2240%22%20height%3D%2220%22%20as%3D%22geometry%22%2F%3E%3C%2FmxCell%3E%3C%2Froot%3E%3C%2FmxGraphModel%3E&lt;/span&gt;" style="text;html=1;strokeColor=none;fillColor=none;align=center;verticalAlign=middle;whiteSpace=wrap;rounded=0;" parent="1" vertex="1">
          <mxGeometry x="1080" y="210" width="80" height="20" as="geometry" />
        </mxCell>
        <mxCell id="1VEz2_jv1e1CEYr6-E1S-36" value="token 1" style="text;html=1;strokeColor=none;fillColor=none;align=center;verticalAlign=middle;whiteSpace=wrap;rounded=0;" parent="1" vertex="1">
          <mxGeometry x="1080" y="250" width="80" height="20" as="geometry" />
        </mxCell>
        <mxCell id="1VEz2_jv1e1CEYr6-E1S-37" value="token 2" style="text;html=1;strokeColor=none;fillColor=none;align=center;verticalAlign=middle;whiteSpace=wrap;rounded=0;" parent="1" vertex="1">
          <mxGeometry x="1080" y="290" width="80" height="20" as="geometry" />
        </mxCell>
        <mxCell id="1VEz2_jv1e1CEYr6-E1S-38" value="token 3" style="text;html=1;strokeColor=none;fillColor=none;align=center;verticalAlign=middle;whiteSpace=wrap;rounded=0;" parent="1" vertex="1">
          <mxGeometry x="1080" y="330" width="80" height="20" as="geometry" />
        </mxCell>
        <mxCell id="1VEz2_jv1e1CEYr6-E1S-39" value="token 4" style="text;html=1;strokeColor=none;fillColor=none;align=center;verticalAlign=middle;whiteSpace=wrap;rounded=0;" parent="1" vertex="1">
          <mxGeometry x="1080" y="370" width="80" height="20" as="geometry" />
        </mxCell>
        <mxCell id="1VEz2_jv1e1CEYr6-E1S-40" value="token 5" style="text;html=1;strokeColor=none;fillColor=none;align=center;verticalAlign=middle;whiteSpace=wrap;rounded=0;" parent="1" vertex="1">
          <mxGeometry x="1080" y="410" width="80" height="20" as="geometry" />
        </mxCell>
        <mxCell id="1VEz2_jv1e1CEYr6-E1S-41" value="token 6" style="text;html=1;strokeColor=none;fillColor=none;align=center;verticalAlign=middle;whiteSpace=wrap;rounded=0;" parent="1" vertex="1">
          <mxGeometry x="1080" y="450" width="80" height="20" as="geometry" />
        </mxCell>
        <mxCell id="1VEz2_jv1e1CEYr6-E1S-42" value="token 7" style="text;html=1;strokeColor=none;fillColor=none;align=center;verticalAlign=middle;whiteSpace=wrap;rounded=0;" parent="1" vertex="1">
          <mxGeometry x="1080" y="490" width="80" height="20" as="geometry" />
        </mxCell>
        <mxCell id="1VEz2_jv1e1CEYr6-E1S-43" value="SEP" style="text;html=1;strokeColor=none;fillColor=none;align=center;verticalAlign=middle;whiteSpace=wrap;rounded=0;" parent="1" vertex="1">
          <mxGeometry x="1080" y="530" width="80" height="20" as="geometry" />
        </mxCell>
        <mxCell id="1VEz2_jv1e1CEYr6-E1S-44" value="CLS&lt;span style=&quot;color: rgba(0 , 0 , 0 , 0) ; font-family: monospace ; font-size: 0px&quot;&gt;%3CmxGraphModel%3E%3Croot%3E%3CmxCell%20id%3D%220%22%2F%3E%3CmxCell%20id%3D%221%22%20parent%3D%220%22%2F%3E%3CmxCell%20id%3D%222%22%20value%3D%22layer%202%22%20style%3D%22text%3Bhtml%3D1%3BstrokeColor%3Dnone%3BfillColor%3Dnone%3Balign%3Dcenter%3BverticalAlign%3Dmiddle%3BwhiteSpace%3Dwrap%3Brounded%3D0%3Brotation%3D90%3B%22%20vertex%3D%221%22%20parent%3D%221%22%3E%3CmxGeometry%20x%3D%22240%22%20y%3D%22270%22%20width%3D%2240%22%20height%3D%2220%22%20as%3D%22geometry%22%2F%3E%3C%2FmxCell%3E%3C%2Froot%3E%3C%2FmxGraphModel%3E&lt;/span&gt;&lt;span style=&quot;color: rgba(0 , 0 , 0 , 0) ; font-family: monospace ; font-size: 0px&quot;&gt;%3CmxGraphModel%3E%3Croot%3E%3CmxCell%20id%3D%220%22%2F%3E%3CmxCell%20id%3D%221%22%20parent%3D%220%22%2F%3E%3CmxCell%20id%3D%222%22%20value%3D%22layer%202%22%20style%3D%22text%3Bhtml%3D1%3BstrokeColor%3Dnone%3BfillColor%3Dnone%3Balign%3Dcenter%3BverticalAlign%3Dmiddle%3BwhiteSpace%3Dwrap%3Brounded%3D0%3Brotation%3D90%3B%22%20vertex%3D%221%22%20parent%3D%221%22%3E%3CmxGeometry%20x%3D%22240%22%20y%3D%22270%22%20width%3D%2240%22%20height%3D%2220%22%20as%3D%22geometry%22%2F%3E%3C%2FmxCell%3E%3C%2Froot%3E%3C%2FmxGraphModel%3E&lt;/span&gt;" style="text;html=1;strokeColor=none;fillColor=none;align=center;verticalAlign=middle;whiteSpace=wrap;rounded=0;" parent="1" vertex="1">
          <mxGeometry x="1680" y="210" width="80" height="20" as="geometry" />
        </mxCell>
        <mxCell id="1VEz2_jv1e1CEYr6-E1S-45" value="token 1" style="text;html=1;strokeColor=none;fillColor=none;align=center;verticalAlign=middle;whiteSpace=wrap;rounded=0;" parent="1" vertex="1">
          <mxGeometry x="1680" y="250" width="80" height="20" as="geometry" />
        </mxCell>
        <mxCell id="1VEz2_jv1e1CEYr6-E1S-46" value="token 2" style="text;html=1;strokeColor=none;fillColor=none;align=center;verticalAlign=middle;whiteSpace=wrap;rounded=0;" parent="1" vertex="1">
          <mxGeometry x="1680" y="290" width="80" height="20" as="geometry" />
        </mxCell>
        <mxCell id="1VEz2_jv1e1CEYr6-E1S-47" value="token 3" style="text;html=1;strokeColor=none;fillColor=none;align=center;verticalAlign=middle;whiteSpace=wrap;rounded=0;" parent="1" vertex="1">
          <mxGeometry x="1680" y="330" width="80" height="20" as="geometry" />
        </mxCell>
        <mxCell id="1VEz2_jv1e1CEYr6-E1S-48" value="token 4" style="text;html=1;strokeColor=none;fillColor=none;align=center;verticalAlign=middle;whiteSpace=wrap;rounded=0;" parent="1" vertex="1">
          <mxGeometry x="1680" y="370" width="80" height="20" as="geometry" />
        </mxCell>
        <mxCell id="1VEz2_jv1e1CEYr6-E1S-49" value="token 5" style="text;html=1;strokeColor=none;fillColor=none;align=center;verticalAlign=middle;whiteSpace=wrap;rounded=0;" parent="1" vertex="1">
          <mxGeometry x="1680" y="410" width="80" height="20" as="geometry" />
        </mxCell>
        <mxCell id="1VEz2_jv1e1CEYr6-E1S-50" value="token 6" style="text;html=1;strokeColor=none;fillColor=none;align=center;verticalAlign=middle;whiteSpace=wrap;rounded=0;" parent="1" vertex="1">
          <mxGeometry x="1680" y="450" width="80" height="20" as="geometry" />
        </mxCell>
        <mxCell id="1VEz2_jv1e1CEYr6-E1S-51" value="token 7" style="text;html=1;strokeColor=none;fillColor=none;align=center;verticalAlign=middle;whiteSpace=wrap;rounded=0;" parent="1" vertex="1">
          <mxGeometry x="1680" y="490" width="80" height="20" as="geometry" />
        </mxCell>
        <mxCell id="1VEz2_jv1e1CEYr6-E1S-52" value="SEP" style="text;html=1;strokeColor=none;fillColor=none;align=center;verticalAlign=middle;whiteSpace=wrap;rounded=0;" parent="1" vertex="1">
          <mxGeometry x="1680" y="530" width="80" height="20" as="geometry" />
        </mxCell>
        <mxCell id="1VEz2_jv1e1CEYr6-E1S-54" value="~" style="text;html=1;strokeColor=none;fillColor=none;align=center;verticalAlign=middle;whiteSpace=wrap;rounded=0;" parent="1" vertex="1">
          <mxGeometry x="1640" y="210" width="40" height="20" as="geometry" />
        </mxCell>
        <mxCell id="1VEz2_jv1e1CEYr6-E1S-55" value="~" style="text;html=1;strokeColor=none;fillColor=none;align=center;verticalAlign=middle;whiteSpace=wrap;rounded=0;" parent="1" vertex="1">
          <mxGeometry x="1640" y="250" width="40" height="20" as="geometry" />
        </mxCell>
        <mxCell id="1VEz2_jv1e1CEYr6-E1S-56" value="~" style="text;html=1;strokeColor=none;fillColor=none;align=center;verticalAlign=middle;whiteSpace=wrap;rounded=0;" parent="1" vertex="1">
          <mxGeometry x="1640" y="290" width="40" height="20" as="geometry" />
        </mxCell>
        <mxCell id="1VEz2_jv1e1CEYr6-E1S-57" value="~" style="text;html=1;strokeColor=none;fillColor=none;align=center;verticalAlign=middle;whiteSpace=wrap;rounded=0;" parent="1" vertex="1">
          <mxGeometry x="1640" y="330" width="40" height="20" as="geometry" />
        </mxCell>
        <mxCell id="1VEz2_jv1e1CEYr6-E1S-58" value="~" style="text;html=1;strokeColor=none;fillColor=none;align=center;verticalAlign=middle;whiteSpace=wrap;rounded=0;" parent="1" vertex="1">
          <mxGeometry x="1640" y="370" width="40" height="20" as="geometry" />
        </mxCell>
        <mxCell id="1VEz2_jv1e1CEYr6-E1S-59" value="~" style="text;html=1;strokeColor=none;fillColor=none;align=center;verticalAlign=middle;whiteSpace=wrap;rounded=0;" parent="1" vertex="1">
          <mxGeometry x="1640" y="410" width="40" height="20" as="geometry" />
        </mxCell>
        <mxCell id="1VEz2_jv1e1CEYr6-E1S-60" value="~" style="text;html=1;strokeColor=none;fillColor=none;align=center;verticalAlign=middle;whiteSpace=wrap;rounded=0;" parent="1" vertex="1">
          <mxGeometry x="1640" y="450" width="40" height="20" as="geometry" />
        </mxCell>
        <mxCell id="1VEz2_jv1e1CEYr6-E1S-61" value="~" style="text;html=1;strokeColor=none;fillColor=none;align=center;verticalAlign=middle;whiteSpace=wrap;rounded=0;" parent="1" vertex="1">
          <mxGeometry x="1640" y="490" width="40" height="20" as="geometry" />
        </mxCell>
        <mxCell id="1VEz2_jv1e1CEYr6-E1S-62" value="~" style="text;html=1;strokeColor=none;fillColor=none;align=center;verticalAlign=middle;whiteSpace=wrap;rounded=0;" parent="1" vertex="1">
          <mxGeometry x="1640" y="530" width="40" height="20" as="geometry" />
        </mxCell>
        <mxCell id="1VEz2_jv1e1CEYr6-E1S-63" value="" style="endArrow=classic;html=1;" parent="1" edge="1">
          <mxGeometry width="50" height="50" relative="1" as="geometry">
            <mxPoint x="1510" y="219.8" as="sourcePoint" />
            <mxPoint x="1530" y="219.8" as="targetPoint" />
            <Array as="points" />
          </mxGeometry>
        </mxCell>
        <mxCell id="1VEz2_jv1e1CEYr6-E1S-64" value="" style="endArrow=classic;html=1;" parent="1" edge="1">
          <mxGeometry width="50" height="50" relative="1" as="geometry">
            <mxPoint x="1510" y="539.8" as="sourcePoint" />
            <mxPoint x="1530" y="539.8" as="targetPoint" />
            <Array as="points" />
          </mxGeometry>
        </mxCell>
        <mxCell id="1VEz2_jv1e1CEYr6-E1S-65" value="" style="rounded=0;whiteSpace=wrap;html=1;" parent="1" vertex="1">
          <mxGeometry x="80" y="640" width="160" height="160" as="geometry" />
        </mxCell>
        <mxCell id="1VEz2_jv1e1CEYr6-E1S-66" value="encoder&amp;nbsp;" style="rounded=0;whiteSpace=wrap;html=1;" parent="1" vertex="1">
          <mxGeometry x="90" y="650" width="140" height="20" as="geometry" />
        </mxCell>
        <mxCell id="1VEz2_jv1e1CEYr6-E1S-67" value="encoder&amp;nbsp;" style="rounded=0;whiteSpace=wrap;html=1;" parent="1" vertex="1">
          <mxGeometry x="90" y="680" width="140" height="20" as="geometry" />
        </mxCell>
        <mxCell id="1VEz2_jv1e1CEYr6-E1S-68" value="encoder&amp;nbsp;" style="rounded=0;whiteSpace=wrap;html=1;" parent="1" vertex="1">
          <mxGeometry x="90" y="710" width="140" height="20" as="geometry" />
        </mxCell>
        <mxCell id="1VEz2_jv1e1CEYr6-E1S-69" value="encoder&amp;nbsp;" style="rounded=0;whiteSpace=wrap;html=1;" parent="1" vertex="1">
          <mxGeometry x="90" y="770" width="140" height="20" as="geometry" />
        </mxCell>
        <mxCell id="1VEz2_jv1e1CEYr6-E1S-71" value="12" style="text;html=1;strokeColor=none;fillColor=none;align=center;verticalAlign=middle;whiteSpace=wrap;rounded=0;" parent="1" vertex="1">
          <mxGeometry x="40" y="650" width="40" height="20" as="geometry" />
        </mxCell>
        <mxCell id="1VEz2_jv1e1CEYr6-E1S-72" value="1" style="text;html=1;strokeColor=none;fillColor=none;align=center;verticalAlign=middle;whiteSpace=wrap;rounded=0;" parent="1" vertex="1">
          <mxGeometry x="40" y="770" width="40" height="20" as="geometry" />
        </mxCell>
        <mxCell id="1VEz2_jv1e1CEYr6-E1S-73" value="10" style="text;html=1;strokeColor=none;fillColor=none;align=center;verticalAlign=middle;whiteSpace=wrap;rounded=0;" parent="1" vertex="1">
          <mxGeometry x="40" y="710" width="40" height="20" as="geometry" />
        </mxCell>
        <mxCell id="1VEz2_jv1e1CEYr6-E1S-74" value="11" style="text;html=1;strokeColor=none;fillColor=none;align=center;verticalAlign=middle;whiteSpace=wrap;rounded=0;" parent="1" vertex="1">
          <mxGeometry x="40" y="680" width="40" height="20" as="geometry" />
        </mxCell>
        <mxCell id="1VEz2_jv1e1CEYr6-E1S-165" value="" style="endArrow=classic;html=1;exitX=1.002;exitY=0.945;exitDx=0;exitDy=0;exitPerimeter=0;" parent="1" edge="1">
          <mxGeometry width="50" height="50" relative="1" as="geometry">
            <mxPoint x="1560" y="499.9099999999999" as="sourcePoint" />
            <mxPoint x="1599.28" y="499.71" as="targetPoint" />
            <Array as="points" />
          </mxGeometry>
        </mxCell>
        <mxCell id="1VEz2_jv1e1CEYr6-E1S-166" value="" style="endArrow=classic;html=1;exitX=1.002;exitY=0.945;exitDx=0;exitDy=0;exitPerimeter=0;" parent="1" edge="1">
          <mxGeometry width="50" height="50" relative="1" as="geometry">
            <mxPoint x="1560" y="459.9099999999999" as="sourcePoint" />
            <mxPoint x="1599.28" y="459.71" as="targetPoint" />
            <Array as="points" />
          </mxGeometry>
        </mxCell>
        <mxCell id="1VEz2_jv1e1CEYr6-E1S-167" value="" style="endArrow=classic;html=1;exitX=1.002;exitY=0.945;exitDx=0;exitDy=0;exitPerimeter=0;" parent="1" edge="1">
          <mxGeometry width="50" height="50" relative="1" as="geometry">
            <mxPoint x="1560.72" y="419.90999999999997" as="sourcePoint" />
            <mxPoint x="1600" y="419.71000000000004" as="targetPoint" />
            <Array as="points" />
          </mxGeometry>
        </mxCell>
        <mxCell id="1VEz2_jv1e1CEYr6-E1S-168" value="" style="endArrow=classic;html=1;exitX=1.002;exitY=0.945;exitDx=0;exitDy=0;exitPerimeter=0;" parent="1" edge="1">
          <mxGeometry width="50" height="50" relative="1" as="geometry">
            <mxPoint x="1560.72" y="339.90999999999997" as="sourcePoint" />
            <mxPoint x="1600" y="339.71000000000004" as="targetPoint" />
            <Array as="points" />
          </mxGeometry>
        </mxCell>
        <mxCell id="1VEz2_jv1e1CEYr6-E1S-169" value="" style="endArrow=classic;html=1;exitX=1.002;exitY=0.945;exitDx=0;exitDy=0;exitPerimeter=0;" parent="1" edge="1">
          <mxGeometry width="50" height="50" relative="1" as="geometry">
            <mxPoint x="1560.72" y="299.9099999999999" as="sourcePoint" />
            <mxPoint x="1600" y="299.71" as="targetPoint" />
            <Array as="points" />
          </mxGeometry>
        </mxCell>
        <mxCell id="1VEz2_jv1e1CEYr6-E1S-170" value="" style="endArrow=classic;html=1;exitX=1.002;exitY=0.945;exitDx=0;exitDy=0;exitPerimeter=0;" parent="1" edge="1">
          <mxGeometry width="50" height="50" relative="1" as="geometry">
            <mxPoint x="1560.72" y="259.9099999999999" as="sourcePoint" />
            <mxPoint x="1600" y="259.71" as="targetPoint" />
            <Array as="points" />
          </mxGeometry>
        </mxCell>
        <mxCell id="1VEz2_jv1e1CEYr6-E1S-203" value="" style="whiteSpace=wrap;html=1;aspect=fixed;" parent="1" vertex="1">
          <mxGeometry x="160" y="200" width="360" height="360" as="geometry" />
        </mxCell>
        <mxCell id="1VEz2_jv1e1CEYr6-E1S-204" value="" style="rounded=0;whiteSpace=wrap;html=1;" parent="1" vertex="1">
          <mxGeometry x="170" y="210" width="20" height="340" as="geometry" />
        </mxCell>
        <mxCell id="1VEz2_jv1e1CEYr6-E1S-205" value="" style="rounded=0;whiteSpace=wrap;html=1;" parent="1" vertex="1">
          <mxGeometry x="210" y="210" width="20" height="340" as="geometry" />
        </mxCell>
        <mxCell id="1VEz2_jv1e1CEYr6-E1S-206" value="" style="rounded=0;whiteSpace=wrap;html=1;" parent="1" vertex="1">
          <mxGeometry x="490" y="210" width="20" height="340" as="geometry" />
        </mxCell>
        <mxCell id="1VEz2_jv1e1CEYr6-E1S-207" value="" style="endArrow=classic;html=1;exitX=1;exitY=0.5;exitDx=0;exitDy=0;" parent="1" source="1VEz2_jv1e1CEYr6-E1S-222" edge="1">
          <mxGeometry width="50" height="50" relative="1" as="geometry">
            <mxPoint x="130" y="220" as="sourcePoint" />
            <mxPoint x="160" y="220" as="targetPoint" />
            <Array as="points">
              <mxPoint x="160" y="220" />
            </Array>
          </mxGeometry>
        </mxCell>
        <mxCell id="1VEz2_jv1e1CEYr6-E1S-208" value="" style="endArrow=classic;html=1;exitX=1;exitY=0.5;exitDx=0;exitDy=0;" parent="1" source="1VEz2_jv1e1CEYr6-E1S-223" edge="1">
          <mxGeometry width="50" height="50" relative="1" as="geometry">
            <mxPoint x="130" y="260" as="sourcePoint" />
            <mxPoint x="160" y="260" as="targetPoint" />
            <Array as="points">
              <mxPoint x="160" y="260" />
            </Array>
          </mxGeometry>
        </mxCell>
        <mxCell id="1VEz2_jv1e1CEYr6-E1S-209" value="" style="endArrow=classic;html=1;exitX=1;exitY=0.5;exitDx=0;exitDy=0;" parent="1" source="1VEz2_jv1e1CEYr6-E1S-224" edge="1">
          <mxGeometry width="50" height="50" relative="1" as="geometry">
            <mxPoint x="130" y="300" as="sourcePoint" />
            <mxPoint x="160" y="300" as="targetPoint" />
            <Array as="points">
              <mxPoint x="160" y="300" />
            </Array>
          </mxGeometry>
        </mxCell>
        <mxCell id="1VEz2_jv1e1CEYr6-E1S-210" value="" style="endArrow=classic;html=1;exitX=1;exitY=0.5;exitDx=0;exitDy=0;" parent="1" source="1VEz2_jv1e1CEYr6-E1S-225" edge="1">
          <mxGeometry width="50" height="50" relative="1" as="geometry">
            <mxPoint x="130" y="340" as="sourcePoint" />
            <mxPoint x="160" y="340" as="targetPoint" />
            <Array as="points">
              <mxPoint x="160" y="340" />
            </Array>
          </mxGeometry>
        </mxCell>
        <mxCell id="1VEz2_jv1e1CEYr6-E1S-211" value="" style="endArrow=classic;html=1;exitX=1;exitY=0.5;exitDx=0;exitDy=0;" parent="1" source="1VEz2_jv1e1CEYr6-E1S-226" edge="1">
          <mxGeometry width="50" height="50" relative="1" as="geometry">
            <mxPoint x="130" y="379.8299999999999" as="sourcePoint" />
            <mxPoint x="160" y="379.8299999999999" as="targetPoint" />
            <Array as="points">
              <mxPoint x="160" y="379.8299999999999" />
            </Array>
          </mxGeometry>
        </mxCell>
        <mxCell id="1VEz2_jv1e1CEYr6-E1S-212" value="" style="endArrow=classic;html=1;exitX=1;exitY=0.5;exitDx=0;exitDy=0;" parent="1" source="1VEz2_jv1e1CEYr6-E1S-227" edge="1">
          <mxGeometry width="50" height="50" relative="1" as="geometry">
            <mxPoint x="130" y="420" as="sourcePoint" />
            <mxPoint x="160" y="420" as="targetPoint" />
            <Array as="points">
              <mxPoint x="160" y="420" />
            </Array>
          </mxGeometry>
        </mxCell>
        <mxCell id="1VEz2_jv1e1CEYr6-E1S-213" value="" style="endArrow=classic;html=1;exitX=1;exitY=0.5;exitDx=0;exitDy=0;" parent="1" source="1VEz2_jv1e1CEYr6-E1S-228" edge="1">
          <mxGeometry width="50" height="50" relative="1" as="geometry">
            <mxPoint x="94" y="460" as="sourcePoint" />
            <mxPoint x="160" y="459.9999999999998" as="targetPoint" />
            <Array as="points">
              <mxPoint x="160" y="460" />
            </Array>
          </mxGeometry>
        </mxCell>
        <mxCell id="1VEz2_jv1e1CEYr6-E1S-214" value="" style="endArrow=classic;html=1;exitX=1;exitY=0.5;exitDx=0;exitDy=0;" parent="1" source="1VEz2_jv1e1CEYr6-E1S-229" edge="1">
          <mxGeometry width="50" height="50" relative="1" as="geometry">
            <mxPoint x="130" y="499.99999999999955" as="sourcePoint" />
            <mxPoint x="160" y="499.99999999999955" as="targetPoint" />
            <Array as="points">
              <mxPoint x="160" y="500" />
            </Array>
          </mxGeometry>
        </mxCell>
        <mxCell id="1VEz2_jv1e1CEYr6-E1S-215" value="" style="endArrow=classic;html=1;exitX=1;exitY=0.5;exitDx=0;exitDy=0;" parent="1" source="1VEz2_jv1e1CEYr6-E1S-230" edge="1">
          <mxGeometry width="50" height="50" relative="1" as="geometry">
            <mxPoint x="130" y="539.9999999999995" as="sourcePoint" />
            <mxPoint x="160" y="539.9999999999995" as="targetPoint" />
            <Array as="points">
              <mxPoint x="160" y="540" />
            </Array>
          </mxGeometry>
        </mxCell>
        <mxCell id="1VEz2_jv1e1CEYr6-E1S-216" value="" style="endArrow=classic;html=1;" parent="1" edge="1">
          <mxGeometry width="50" height="50" relative="1" as="geometry">
            <mxPoint x="190" y="220" as="sourcePoint" />
            <mxPoint x="210" y="220" as="targetPoint" />
            <Array as="points" />
          </mxGeometry>
        </mxCell>
        <mxCell id="1VEz2_jv1e1CEYr6-E1S-217" value="" style="endArrow=classic;html=1;" parent="1" edge="1">
          <mxGeometry width="50" height="50" relative="1" as="geometry">
            <mxPoint x="190" y="539.9999999999995" as="sourcePoint" />
            <mxPoint x="210" y="539.9999999999995" as="targetPoint" />
            <Array as="points" />
          </mxGeometry>
        </mxCell>
        <mxCell id="1VEz2_jv1e1CEYr6-E1S-218" value="12 layer + 768 features" style="text;html=1;strokeColor=none;fillColor=none;align=center;verticalAlign=middle;whiteSpace=wrap;rounded=0;" parent="1" vertex="1">
          <mxGeometry x="160" y="170" width="360" height="20" as="geometry" />
        </mxCell>
        <mxCell id="1VEz2_jv1e1CEYr6-E1S-219" value="encoder layer 1" style="text;html=1;strokeColor=none;fillColor=none;align=center;verticalAlign=middle;whiteSpace=wrap;rounded=0;rotation=90;" parent="1" vertex="1">
          <mxGeometry x="135" y="370" width="90" height="20" as="geometry" />
        </mxCell>
        <mxCell id="1VEz2_jv1e1CEYr6-E1S-220" value="layer 2" style="text;html=1;strokeColor=none;fillColor=none;align=center;verticalAlign=middle;whiteSpace=wrap;rounded=0;rotation=90;" parent="1" vertex="1">
          <mxGeometry x="200" y="370" width="40" height="20" as="geometry" />
        </mxCell>
        <mxCell id="1VEz2_jv1e1CEYr6-E1S-221" value="layer 12" style="text;html=1;strokeColor=none;fillColor=none;align=center;verticalAlign=middle;whiteSpace=wrap;rounded=0;rotation=90;" parent="1" vertex="1">
          <mxGeometry x="465" y="370" width="70" height="20" as="geometry" />
        </mxCell>
        <mxCell id="1VEz2_jv1e1CEYr6-E1S-222" value="CLS&lt;span style=&quot;color: rgba(0 , 0 , 0 , 0) ; font-family: monospace ; font-size: 0px&quot;&gt;%3CmxGraphModel%3E%3Croot%3E%3CmxCell%20id%3D%220%22%2F%3E%3CmxCell%20id%3D%221%22%20parent%3D%220%22%2F%3E%3CmxCell%20id%3D%222%22%20value%3D%22layer%202%22%20style%3D%22text%3Bhtml%3D1%3BstrokeColor%3Dnone%3BfillColor%3Dnone%3Balign%3Dcenter%3BverticalAlign%3Dmiddle%3BwhiteSpace%3Dwrap%3Brounded%3D0%3Brotation%3D90%3B%22%20vertex%3D%221%22%20parent%3D%221%22%3E%3CmxGeometry%20x%3D%22240%22%20y%3D%22270%22%20width%3D%2240%22%20height%3D%2220%22%20as%3D%22geometry%22%2F%3E%3C%2FmxCell%3E%3C%2Froot%3E%3C%2FmxGraphModel%3E&lt;/span&gt;&lt;span style=&quot;color: rgba(0 , 0 , 0 , 0) ; font-family: monospace ; font-size: 0px&quot;&gt;%3CmxGraphModel%3E%3Croot%3E%3CmxCell%20id%3D%220%22%2F%3E%3CmxCell%20id%3D%221%22%20parent%3D%220%22%2F%3E%3CmxCell%20id%3D%222%22%20value%3D%22layer%202%22%20style%3D%22text%3Bhtml%3D1%3BstrokeColor%3Dnone%3BfillColor%3Dnone%3Balign%3Dcenter%3BverticalAlign%3Dmiddle%3BwhiteSpace%3Dwrap%3Brounded%3D0%3Brotation%3D90%3B%22%20vertex%3D%221%22%20parent%3D%221%22%3E%3CmxGeometry%20x%3D%22240%22%20y%3D%22270%22%20width%3D%2240%22%20height%3D%2220%22%20as%3D%22geometry%22%2F%3E%3C%2FmxCell%3E%3C%2Froot%3E%3C%2FmxGraphModel%3E&lt;/span&gt;" style="text;html=1;strokeColor=none;fillColor=none;align=center;verticalAlign=middle;whiteSpace=wrap;rounded=0;" parent="1" vertex="1">
          <mxGeometry x="40" y="210" width="50" height="20" as="geometry" />
        </mxCell>
        <mxCell id="1VEz2_jv1e1CEYr6-E1S-223" value="token 1" style="text;html=1;strokeColor=none;fillColor=none;align=center;verticalAlign=middle;whiteSpace=wrap;rounded=0;" parent="1" vertex="1">
          <mxGeometry x="40" y="250" width="50" height="20" as="geometry" />
        </mxCell>
        <mxCell id="1VEz2_jv1e1CEYr6-E1S-224" value="token 2" style="text;html=1;strokeColor=none;fillColor=none;align=center;verticalAlign=middle;whiteSpace=wrap;rounded=0;" parent="1" vertex="1">
          <mxGeometry x="40" y="290" width="50" height="20" as="geometry" />
        </mxCell>
        <mxCell id="1VEz2_jv1e1CEYr6-E1S-225" value="token 3" style="text;html=1;strokeColor=none;fillColor=none;align=center;verticalAlign=middle;whiteSpace=wrap;rounded=0;" parent="1" vertex="1">
          <mxGeometry x="40" y="330" width="50" height="20" as="geometry" />
        </mxCell>
        <mxCell id="1VEz2_jv1e1CEYr6-E1S-226" value="MASK" style="text;html=1;strokeColor=none;fillColor=none;align=center;verticalAlign=middle;whiteSpace=wrap;rounded=0;" parent="1" vertex="1">
          <mxGeometry x="40" y="370" width="50" height="20" as="geometry" />
        </mxCell>
        <mxCell id="1VEz2_jv1e1CEYr6-E1S-227" value="token 5" style="text;html=1;strokeColor=none;fillColor=none;align=center;verticalAlign=middle;whiteSpace=wrap;rounded=0;" parent="1" vertex="1">
          <mxGeometry x="40" y="410" width="50" height="20" as="geometry" />
        </mxCell>
        <mxCell id="1VEz2_jv1e1CEYr6-E1S-228" value="token 6" style="text;html=1;strokeColor=none;fillColor=none;align=center;verticalAlign=middle;whiteSpace=wrap;rounded=0;" parent="1" vertex="1">
          <mxGeometry x="40" y="450" width="50" height="20" as="geometry" />
        </mxCell>
        <mxCell id="1VEz2_jv1e1CEYr6-E1S-229" value="token 7" style="text;html=1;strokeColor=none;fillColor=none;align=center;verticalAlign=middle;whiteSpace=wrap;rounded=0;" parent="1" vertex="1">
          <mxGeometry x="40" y="490" width="50" height="20" as="geometry" />
        </mxCell>
        <mxCell id="1VEz2_jv1e1CEYr6-E1S-230" value="SEP" style="text;html=1;strokeColor=none;fillColor=none;align=center;verticalAlign=middle;whiteSpace=wrap;rounded=0;" parent="1" vertex="1">
          <mxGeometry x="40" y="530" width="50" height="20" as="geometry" />
        </mxCell>
        <mxCell id="1VEz2_jv1e1CEYr6-E1S-231" value="" style="endArrow=classic;html=1;" parent="1" edge="1">
          <mxGeometry width="50" height="50" relative="1" as="geometry">
            <mxPoint x="470" y="219.79999999999995" as="sourcePoint" />
            <mxPoint x="490" y="219.79999999999995" as="targetPoint" />
            <Array as="points" />
          </mxGeometry>
        </mxCell>
        <mxCell id="1VEz2_jv1e1CEYr6-E1S-232" value="" style="endArrow=classic;html=1;" parent="1" edge="1">
          <mxGeometry width="50" height="50" relative="1" as="geometry">
            <mxPoint x="470" y="539.7999999999997" as="sourcePoint" />
            <mxPoint x="490" y="539.7999999999997" as="targetPoint" />
            <Array as="points" />
          </mxGeometry>
        </mxCell>
        <mxCell id="1VEz2_jv1e1CEYr6-E1S-233" value="" style="endArrow=classic;html=1;" parent="1" edge="1">
          <mxGeometry width="50" height="50" relative="1" as="geometry">
            <mxPoint x="520" y="219.65999999999985" as="sourcePoint" />
            <mxPoint x="550" y="219.65999999999985" as="targetPoint" />
          </mxGeometry>
        </mxCell>
        <mxCell id="1VEz2_jv1e1CEYr6-E1S-234" value="" style="endArrow=classic;html=1;" parent="1" edge="1">
          <mxGeometry width="50" height="50" relative="1" as="geometry">
            <mxPoint x="520" y="259.65999999999985" as="sourcePoint" />
            <mxPoint x="550" y="259.65999999999985" as="targetPoint" />
            <Array as="points">
              <mxPoint x="550" y="259.65999999999997" />
            </Array>
          </mxGeometry>
        </mxCell>
        <mxCell id="1VEz2_jv1e1CEYr6-E1S-235" value="" style="endArrow=classic;html=1;" parent="1" edge="1">
          <mxGeometry width="50" height="50" relative="1" as="geometry">
            <mxPoint x="520" y="299.65999999999985" as="sourcePoint" />
            <mxPoint x="550" y="299.65999999999985" as="targetPoint" />
            <Array as="points">
              <mxPoint x="550" y="299.65999999999997" />
            </Array>
          </mxGeometry>
        </mxCell>
        <mxCell id="1VEz2_jv1e1CEYr6-E1S-236" value="" style="endArrow=classic;html=1;" parent="1" edge="1">
          <mxGeometry width="50" height="50" relative="1" as="geometry">
            <mxPoint x="520" y="339.65999999999985" as="sourcePoint" />
            <mxPoint x="550" y="339.65999999999985" as="targetPoint" />
            <Array as="points">
              <mxPoint x="550" y="339.65999999999997" />
            </Array>
          </mxGeometry>
        </mxCell>
        <mxCell id="1VEz2_jv1e1CEYr6-E1S-237" value="" style="endArrow=classic;html=1;" parent="1" edge="1">
          <mxGeometry width="50" height="50" relative="1" as="geometry">
            <mxPoint x="520" y="379.4899999999998" as="sourcePoint" />
            <mxPoint x="600" y="379" as="targetPoint" />
          </mxGeometry>
        </mxCell>
        <mxCell id="1VEz2_jv1e1CEYr6-E1S-238" value="" style="endArrow=classic;html=1;" parent="1" edge="1">
          <mxGeometry width="50" height="50" relative="1" as="geometry">
            <mxPoint x="520" y="419.65999999999985" as="sourcePoint" />
            <mxPoint x="550" y="419.65999999999985" as="targetPoint" />
            <Array as="points">
              <mxPoint x="550" y="419.65999999999997" />
            </Array>
          </mxGeometry>
        </mxCell>
        <mxCell id="1VEz2_jv1e1CEYr6-E1S-239" value="" style="endArrow=classic;html=1;" parent="1" edge="1">
          <mxGeometry width="50" height="50" relative="1" as="geometry">
            <mxPoint x="520" y="459.65999999999985" as="sourcePoint" />
            <mxPoint x="550" y="459.65999999999985" as="targetPoint" />
            <Array as="points">
              <mxPoint x="550" y="459.65999999999997" />
            </Array>
          </mxGeometry>
        </mxCell>
        <mxCell id="1VEz2_jv1e1CEYr6-E1S-240" value="" style="endArrow=classic;html=1;" parent="1" edge="1">
          <mxGeometry width="50" height="50" relative="1" as="geometry">
            <mxPoint x="520" y="499.65999999999985" as="sourcePoint" />
            <mxPoint x="550" y="499.65999999999985" as="targetPoint" />
            <Array as="points">
              <mxPoint x="550" y="499.65999999999997" />
            </Array>
          </mxGeometry>
        </mxCell>
        <mxCell id="1VEz2_jv1e1CEYr6-E1S-241" value="" style="endArrow=classic;html=1;" parent="1" edge="1">
          <mxGeometry width="50" height="50" relative="1" as="geometry">
            <mxPoint x="520" y="539.6599999999999" as="sourcePoint" />
            <mxPoint x="550" y="539.6599999999999" as="targetPoint" />
            <Array as="points">
              <mxPoint x="550" y="539.6600000000001" />
            </Array>
          </mxGeometry>
        </mxCell>
        <mxCell id="1VEz2_jv1e1CEYr6-E1S-242" value="FFNN&lt;br&gt;+ softmax&lt;br&gt;classifier" style="rounded=0;whiteSpace=wrap;html=1;" parent="1" vertex="1">
          <mxGeometry x="600" y="200" width="80" height="360" as="geometry" />
        </mxCell>
        <mxCell id="1VEz2_jv1e1CEYr6-E1S-243" value="" style="endArrow=classic;html=1;" parent="1" edge="1">
          <mxGeometry width="50" height="50" relative="1" as="geometry">
            <mxPoint x="680" y="380.0699999999997" as="sourcePoint" />
            <mxPoint x="720" y="380" as="targetPoint" />
          </mxGeometry>
        </mxCell>
        <mxCell id="1VEz2_jv1e1CEYr6-E1S-244" value="token" style="ellipse;whiteSpace=wrap;html=1;aspect=fixed;" parent="1" vertex="1">
          <mxGeometry x="720" y="200" width="40" height="40" as="geometry" />
        </mxCell>
        <mxCell id="1VEz2_jv1e1CEYr6-E1S-245" value="token" style="ellipse;whiteSpace=wrap;html=1;aspect=fixed;" parent="1" vertex="1">
          <mxGeometry x="720" y="240" width="40" height="40" as="geometry" />
        </mxCell>
        <mxCell id="1VEz2_jv1e1CEYr6-E1S-246" value="token" style="ellipse;whiteSpace=wrap;html=1;aspect=fixed;" parent="1" vertex="1">
          <mxGeometry x="720" y="280" width="40" height="40" as="geometry" />
        </mxCell>
        <mxCell id="1VEz2_jv1e1CEYr6-E1S-247" value="&#xa;&#xa;&lt;span style=&quot;color: rgb(0, 0, 0); font-family: helvetica; font-size: 12px; font-style: normal; font-weight: 400; letter-spacing: normal; text-align: center; text-indent: 0px; text-transform: none; word-spacing: 0px; background-color: rgb(248, 249, 250); display: inline; float: none;&quot;&gt;token&lt;/span&gt;&#xa;&#xa;" style="ellipse;whiteSpace=wrap;html=1;aspect=fixed;" parent="1" vertex="1">
          <mxGeometry x="720" y="320" width="40" height="40" as="geometry" />
        </mxCell>
        <mxCell id="1VEz2_jv1e1CEYr6-E1S-248" value="token 4" style="ellipse;whiteSpace=wrap;html=1;aspect=fixed;" parent="1" vertex="1">
          <mxGeometry x="720" y="360" width="40" height="40" as="geometry" />
        </mxCell>
        <mxCell id="1VEz2_jv1e1CEYr6-E1S-249" value="&#xa;&#xa;&lt;span style=&quot;color: rgb(0, 0, 0); font-family: helvetica; font-size: 12px; font-style: normal; font-weight: 400; letter-spacing: normal; text-align: center; text-indent: 0px; text-transform: none; word-spacing: 0px; background-color: rgb(248, 249, 250); display: inline; float: none;&quot;&gt;token&lt;/span&gt;&#xa;&#xa;" style="ellipse;whiteSpace=wrap;html=1;aspect=fixed;" parent="1" vertex="1">
          <mxGeometry x="720" y="400" width="40" height="40" as="geometry" />
        </mxCell>
        <mxCell id="1VEz2_jv1e1CEYr6-E1S-250" value="&#xa;&#xa;&lt;span style=&quot;color: rgb(0, 0, 0); font-family: helvetica; font-size: 12px; font-style: normal; font-weight: 400; letter-spacing: normal; text-align: center; text-indent: 0px; text-transform: none; word-spacing: 0px; background-color: rgb(248, 249, 250); display: inline; float: none;&quot;&gt;token&lt;/span&gt;&#xa;&#xa;" style="ellipse;whiteSpace=wrap;html=1;aspect=fixed;" parent="1" vertex="1">
          <mxGeometry x="720" y="440" width="40" height="40" as="geometry" />
        </mxCell>
        <mxCell id="1VEz2_jv1e1CEYr6-E1S-251" value="&#xa;&#xa;&lt;span style=&quot;color: rgb(0, 0, 0); font-family: helvetica; font-size: 12px; font-style: normal; font-weight: 400; letter-spacing: normal; text-align: center; text-indent: 0px; text-transform: none; word-spacing: 0px; background-color: rgb(248, 249, 250); display: inline; float: none;&quot;&gt;token&lt;/span&gt;&#xa;&#xa;" style="ellipse;whiteSpace=wrap;html=1;aspect=fixed;" parent="1" vertex="1">
          <mxGeometry x="720" y="480" width="40" height="40" as="geometry" />
        </mxCell>
        <mxCell id="1VEz2_jv1e1CEYr6-E1S-252" value="&#xa;&#xa;&lt;span style=&quot;color: rgb(0, 0, 0); font-family: helvetica; font-size: 12px; font-style: normal; font-weight: 400; letter-spacing: normal; text-align: center; text-indent: 0px; text-transform: none; word-spacing: 0px; background-color: rgb(248, 249, 250); display: inline; float: none;&quot;&gt;token&lt;/span&gt;&#xa;&#xa;" style="ellipse;whiteSpace=wrap;html=1;aspect=fixed;" parent="1" vertex="1">
          <mxGeometry x="720" y="520" width="40" height="40" as="geometry" />
        </mxCell>
        <mxCell id="1VEz2_jv1e1CEYr6-E1S-253" value="0.1%" style="text;html=1;strokeColor=none;fillColor=none;align=center;verticalAlign=middle;whiteSpace=wrap;rounded=0;" parent="1" vertex="1">
          <mxGeometry x="800" y="210" width="40" height="20" as="geometry" />
        </mxCell>
        <mxCell id="1VEz2_jv1e1CEYr6-E1S-254" value="&#xa;&#xa;&lt;span style=&quot;color: rgb(0, 0, 0); font-family: helvetica; font-size: 12px; font-style: normal; font-weight: 400; letter-spacing: normal; text-align: center; text-indent: 0px; text-transform: none; word-spacing: 0px; background-color: rgb(248, 249, 250); display: inline; float: none;&quot;&gt;0.1%&lt;/span&gt;&#xa;&#xa;" style="text;html=1;strokeColor=none;fillColor=none;align=center;verticalAlign=middle;whiteSpace=wrap;rounded=0;" parent="1" vertex="1">
          <mxGeometry x="800" y="250" width="40" height="20" as="geometry" />
        </mxCell>
        <mxCell id="1VEz2_jv1e1CEYr6-E1S-255" value="0.1%" style="text;html=1;strokeColor=none;fillColor=none;align=center;verticalAlign=middle;whiteSpace=wrap;rounded=0;" parent="1" vertex="1">
          <mxGeometry x="800" y="290" width="40" height="20" as="geometry" />
        </mxCell>
        <mxCell id="1VEz2_jv1e1CEYr6-E1S-256" value="0.1%" style="text;html=1;strokeColor=none;fillColor=none;align=center;verticalAlign=middle;whiteSpace=wrap;rounded=0;" parent="1" vertex="1">
          <mxGeometry x="800" y="330" width="40" height="20" as="geometry" />
        </mxCell>
        <mxCell id="1VEz2_jv1e1CEYr6-E1S-257" value="10%" style="text;html=1;strokeColor=none;fillColor=none;align=center;verticalAlign=middle;whiteSpace=wrap;rounded=0;" parent="1" vertex="1">
          <mxGeometry x="800" y="370" width="40" height="20" as="geometry" />
        </mxCell>
        <mxCell id="1VEz2_jv1e1CEYr6-E1S-258" value="0.1%" style="text;html=1;strokeColor=none;fillColor=none;align=center;verticalAlign=middle;whiteSpace=wrap;rounded=0;" parent="1" vertex="1">
          <mxGeometry x="800" y="410" width="40" height="20" as="geometry" />
        </mxCell>
        <mxCell id="1VEz2_jv1e1CEYr6-E1S-259" value="0.1%" style="text;html=1;strokeColor=none;fillColor=none;align=center;verticalAlign=middle;whiteSpace=wrap;rounded=0;" parent="1" vertex="1">
          <mxGeometry x="800" y="450" width="40" height="20" as="geometry" />
        </mxCell>
        <mxCell id="1VEz2_jv1e1CEYr6-E1S-260" value="0.1%" style="text;html=1;strokeColor=none;fillColor=none;align=center;verticalAlign=middle;whiteSpace=wrap;rounded=0;" parent="1" vertex="1">
          <mxGeometry x="800" y="490" width="40" height="20" as="geometry" />
        </mxCell>
        <mxCell id="1VEz2_jv1e1CEYr6-E1S-261" value="&#xa;&#xa;&lt;span style=&quot;color: rgb(0, 0, 0); font-family: helvetica; font-size: 12px; font-style: normal; font-weight: 400; letter-spacing: normal; text-align: center; text-indent: 0px; text-transform: none; word-spacing: 0px; background-color: rgb(248, 249, 250); display: inline; float: none;&quot;&gt;0.1%&lt;/span&gt;&#xa;&#xa;" style="text;html=1;strokeColor=none;fillColor=none;align=center;verticalAlign=middle;whiteSpace=wrap;rounded=0;" parent="1" vertex="1">
          <mxGeometry x="800" y="530" width="40" height="20" as="geometry" />
        </mxCell>
        <mxCell id="1VEz2_jv1e1CEYr6-E1S-262" value="~" style="text;html=1;strokeColor=none;fillColor=none;align=center;verticalAlign=middle;whiteSpace=wrap;rounded=0;" parent="1" vertex="1">
          <mxGeometry x="760" y="210" width="40" height="20" as="geometry" />
        </mxCell>
        <mxCell id="1VEz2_jv1e1CEYr6-E1S-263" value="~" style="text;html=1;strokeColor=none;fillColor=none;align=center;verticalAlign=middle;whiteSpace=wrap;rounded=0;" parent="1" vertex="1">
          <mxGeometry x="760" y="250" width="40" height="20" as="geometry" />
        </mxCell>
        <mxCell id="1VEz2_jv1e1CEYr6-E1S-264" value="~" style="text;html=1;strokeColor=none;fillColor=none;align=center;verticalAlign=middle;whiteSpace=wrap;rounded=0;" parent="1" vertex="1">
          <mxGeometry x="760" y="290" width="40" height="20" as="geometry" />
        </mxCell>
        <mxCell id="1VEz2_jv1e1CEYr6-E1S-265" value="~" style="text;html=1;strokeColor=none;fillColor=none;align=center;verticalAlign=middle;whiteSpace=wrap;rounded=0;" parent="1" vertex="1">
          <mxGeometry x="760" y="330" width="40" height="20" as="geometry" />
        </mxCell>
        <mxCell id="1VEz2_jv1e1CEYr6-E1S-266" value="~" style="text;html=1;strokeColor=none;fillColor=none;align=center;verticalAlign=middle;whiteSpace=wrap;rounded=0;" parent="1" vertex="1">
          <mxGeometry x="760" y="370" width="40" height="20" as="geometry" />
        </mxCell>
        <mxCell id="1VEz2_jv1e1CEYr6-E1S-267" value="~" style="text;html=1;strokeColor=none;fillColor=none;align=center;verticalAlign=middle;whiteSpace=wrap;rounded=0;" parent="1" vertex="1">
          <mxGeometry x="760" y="410" width="40" height="20" as="geometry" />
        </mxCell>
        <mxCell id="1VEz2_jv1e1CEYr6-E1S-268" value="~" style="text;html=1;strokeColor=none;fillColor=none;align=center;verticalAlign=middle;whiteSpace=wrap;rounded=0;" parent="1" vertex="1">
          <mxGeometry x="760" y="450" width="40" height="20" as="geometry" />
        </mxCell>
        <mxCell id="1VEz2_jv1e1CEYr6-E1S-269" value="~" style="text;html=1;strokeColor=none;fillColor=none;align=center;verticalAlign=middle;whiteSpace=wrap;rounded=0;" parent="1" vertex="1">
          <mxGeometry x="760" y="490" width="40" height="20" as="geometry" />
        </mxCell>
        <mxCell id="1VEz2_jv1e1CEYr6-E1S-270" value="~" style="text;html=1;strokeColor=none;fillColor=none;align=center;verticalAlign=middle;whiteSpace=wrap;rounded=0;" parent="1" vertex="1">
          <mxGeometry x="760" y="530" width="40" height="20" as="geometry" />
        </mxCell>
        <mxCell id="1VEz2_jv1e1CEYr6-E1S-271" value="map MASK token&lt;br&gt;to the right token" style="text;html=1;strokeColor=none;fillColor=none;align=center;verticalAlign=middle;whiteSpace=wrap;rounded=0;" parent="1" vertex="1">
          <mxGeometry x="840" y="360" width="160" height="40" as="geometry" />
        </mxCell>
        <mxCell id="1VEz2_jv1e1CEYr6-E1S-272" value="&lt;b&gt;Training BERT&lt;/b&gt;" style="text;html=1;strokeColor=none;fillColor=none;align=center;verticalAlign=middle;whiteSpace=wrap;rounded=0;" parent="1" vertex="1">
          <mxGeometry x="160" y="120" width="360" height="40" as="geometry" />
        </mxCell>
        <mxCell id="1VEz2_jv1e1CEYr6-E1S-273" value="&lt;b&gt;Fine-tune BERT for NER&lt;/b&gt;" style="text;html=1;strokeColor=none;fillColor=none;align=center;verticalAlign=middle;whiteSpace=wrap;rounded=0;" parent="1" vertex="1">
          <mxGeometry x="1200" y="120" width="360" height="40" as="geometry" />
        </mxCell>
        <mxCell id="lW7G8l4lJ_Bp8CjlHEGx-3" value="" style="rounded=1;whiteSpace=wrap;html=1;glass=0;fillColor=none;dashed=1;dashPattern=1 1;" parent="1" vertex="1">
          <mxGeometry x="110" y="200" width="20" height="360" as="geometry" />
        </mxCell>
        <mxCell id="lW7G8l4lJ_Bp8CjlHEGx-5" value="embedding layer" style="text;html=1;strokeColor=none;fillColor=none;align=center;verticalAlign=middle;whiteSpace=wrap;rounded=0;glass=0;rotation=90;" parent="1" vertex="1">
          <mxGeometry x="60" y="370" width="120" height="20" as="geometry" />
        </mxCell>
        <mxCell id="lW7G8l4lJ_Bp8CjlHEGx-7" style="edgeStyle=orthogonalEdgeStyle;rounded=0;orthogonalLoop=1;jettySize=auto;html=1;entryX=0.5;entryY=0;entryDx=0;entryDy=0;" parent="1" source="lW7G8l4lJ_Bp8CjlHEGx-6" target="lW7G8l4lJ_Bp8CjlHEGx-3" edge="1">
          <mxGeometry relative="1" as="geometry" />
        </mxCell>
        <mxCell id="lW7G8l4lJ_Bp8CjlHEGx-6" value="embedding layer" style="text;html=1;strokeColor=none;fillColor=none;align=center;verticalAlign=middle;whiteSpace=wrap;rounded=0;glass=0;rotation=0;" parent="1" vertex="1">
          <mxGeometry x="60" y="130" width="120" height="20" as="geometry" />
        </mxCell>
        <mxCell id="lW7G8l4lJ_Bp8CjlHEGx-8" value="" style="rounded=1;whiteSpace=wrap;html=1;glass=0;fillColor=none;dashed=1;dashPattern=1 1;" parent="1" vertex="1">
          <mxGeometry x="550" y="200" width="20" height="360" as="geometry" />
        </mxCell>
        <mxCell id="lW7G8l4lJ_Bp8CjlHEGx-9" value="embedding layer" style="text;html=1;strokeColor=none;fillColor=none;align=center;verticalAlign=middle;whiteSpace=wrap;rounded=0;glass=0;rotation=90;" parent="1" vertex="1">
          <mxGeometry x="500" y="370" width="120" height="20" as="geometry" />
        </mxCell>
        <mxCell id="lW7G8l4lJ_Bp8CjlHEGx-10" style="edgeStyle=orthogonalEdgeStyle;rounded=0;orthogonalLoop=1;jettySize=auto;html=1;entryX=0.5;entryY=0;entryDx=0;entryDy=0;" parent="1" source="lW7G8l4lJ_Bp8CjlHEGx-11" target="lW7G8l4lJ_Bp8CjlHEGx-8" edge="1">
          <mxGeometry relative="1" as="geometry" />
        </mxCell>
        <mxCell id="lW7G8l4lJ_Bp8CjlHEGx-11" value="embedding layer" style="text;html=1;strokeColor=none;fillColor=none;align=center;verticalAlign=middle;whiteSpace=wrap;rounded=0;glass=0;rotation=0;" parent="1" vertex="1">
          <mxGeometry x="500" y="130" width="120" height="20" as="geometry" />
        </mxCell>
        <mxCell id="lW7G8l4lJ_Bp8CjlHEGx-12" value="768 features" style="text;html=1;strokeColor=none;fillColor=none;align=center;verticalAlign=middle;whiteSpace=wrap;rounded=0;glass=0;" parent="1" vertex="1">
          <mxGeometry x="90" y="620" width="140" height="20" as="geometry" />
        </mxCell>
        <mxCell id="lW7G8l4lJ_Bp8CjlHEGx-13" value="..........................." style="text;html=1;strokeColor=none;fillColor=none;align=center;verticalAlign=middle;whiteSpace=wrap;rounded=0;glass=0;" parent="1" vertex="1">
          <mxGeometry x="90" y="740" width="140" height="20" as="geometry" />
        </mxCell>
        <mxCell id="utSALxv6hjxN1tU6pDut-4" style="edgeStyle=orthogonalEdgeStyle;rounded=0;orthogonalLoop=1;jettySize=auto;html=1;entryX=0;entryY=0.5;entryDx=0;entryDy=0;" edge="1" parent="1" source="utSALxv6hjxN1tU6pDut-1" target="utSALxv6hjxN1tU6pDut-3">
          <mxGeometry relative="1" as="geometry" />
        </mxCell>
        <mxCell id="utSALxv6hjxN1tU6pDut-1" value="input sentence" style="rounded=0;whiteSpace=wrap;html=1;" vertex="1" parent="1">
          <mxGeometry x="-360" y="350" width="120" height="60" as="geometry" />
        </mxCell>
        <mxCell id="utSALxv6hjxN1tU6pDut-5" style="edgeStyle=orthogonalEdgeStyle;rounded=0;orthogonalLoop=1;jettySize=auto;html=1;exitX=1;exitY=0.5;exitDx=0;exitDy=0;" edge="1" parent="1" source="utSALxv6hjxN1tU6pDut-3" target="utSALxv6hjxN1tU6pDut-6">
          <mxGeometry relative="1" as="geometry">
            <mxPoint y="380" as="targetPoint" />
          </mxGeometry>
        </mxCell>
        <mxCell id="utSALxv6hjxN1tU6pDut-3" value="BPE tokenizer" style="ellipse;whiteSpace=wrap;html=1;" vertex="1" parent="1">
          <mxGeometry x="-200" y="340" width="120" height="80" as="geometry" />
        </mxCell>
        <mxCell id="utSALxv6hjxN1tU6pDut-6" value="" style="rounded=0;whiteSpace=wrap;html=1;fillColor=none;dashed=1;" vertex="1" parent="1">
          <mxGeometry x="40" y="200" width="50" height="360" as="geometry" />
        </mxCell>
      </root>
    </mxGraphModel>
  </diagram>
</mxfile>
